<svg width="39" height="39" viewBox="0 0 39 39" fill="none" xmlns="http://www.w3.org/2000/svg">
<path d="M15.6 0H2.6C1.17 0 0 1.17 0 2.6V15.6C0 17.03 1.17 18.2 2.6 18.2H15.6C17.03 18.2 18.2 17.03 18.2 15.6V2.6C18.2 1.17 17.03 0 15.6 0ZM15.6 10.4H2.6V7.8H15.6V10.4ZM36.4 0H23.4C21.97 0 20.8 1.17 20.8 2.6V36.4C20.8 37.83 21.97 39 23.4 39H36.4C37.83 39 39 37.83 39 36.4V2.6C39 1.17 37.83 0 36.4 0ZM36.4 23.4H23.4V20.8H36.4V23.4ZM36.4 15.6H23.4V13H36.4V15.6ZM15.6 20.8H2.6C1.17 20.8 0 21.97 0 23.4V36.4C0 37.83 1.17 39 2.6 39H15.6C17.03 39 18.2 37.83 18.2 36.4V23.4C18.2 21.97 17.03 20.8 15.6 20.8ZM15.6 31.2H10.4V36.4H7.8V31.2H2.6V28.6H7.8V23.4H10.4V28.6H15.6V31.2Z" fill="white"/>
</svg>
