<svg width="26" height="26" viewBox="0 0 26 26" fill="none" xmlns="http://www.w3.org/2000/svg">
<g filter="url(#filter0_d_54_126)">
<path fill-rule="evenodd" clip-rule="evenodd" d="M20.8449 19.8434C21.8606 18.8277 21.8606 17.181 20.8449 16.1654L16.5203 11.8408L20.8443 7.51683C21.8599 6.50117 21.8599 4.85446 20.8443 3.8388C19.8286 2.82315 18.1819 2.82315 17.1662 3.83881L12.8423 8.16274L8.51812 3.83856C7.50247 2.8229 5.85576 2.8229 4.8401 3.83856C3.82444 4.85422 3.82444 6.50093 4.8401 7.51659L9.16428 11.8408L4.83943 16.1656C3.82378 17.1813 3.82378 18.828 4.83943 19.8436C5.85509 20.8593 7.5018 20.8593 8.51746 19.8436L12.8423 15.5188L17.1669 19.8434C18.1826 20.859 19.8293 20.859 20.8449 19.8434Z" fill="white"/>
</g>
<defs>
<filter id="filter0_d_54_126" x="0.078125" y="0.0769043" width="25.5283" height="25.5286" filterUnits="userSpaceOnUse" color-interpolation-filters="sRGB">
<feFlood flood-opacity="0" result="BackgroundImageFix"/>
<feColorMatrix in="SourceAlpha" type="matrix" values="0 0 0 0 0 0 0 0 0 0 0 0 0 0 0 0 0 0 127 0" result="hardAlpha"/>
<feOffset dy="1"/>
<feGaussianBlur stdDeviation="2"/>
<feComposite in2="hardAlpha" operator="out"/>
<feColorMatrix type="matrix" values="0 0 0 0 0 0 0 0 0 0 0 0 0 0 0 0 0 0 0.25 0"/>
<feBlend mode="normal" in2="BackgroundImageFix" result="effect1_dropShadow_54_126"/>
<feBlend mode="normal" in="SourceGraphic" in2="effect1_dropShadow_54_126" result="shape"/>
</filter>
</defs>
</svg>
