<svg width="36" height="42" viewBox="0 0 36 42" fill="none" xmlns="http://www.w3.org/2000/svg">
<path fill-rule="evenodd" clip-rule="evenodd" d="M6.18869 0C5.09446 0 4.04505 0.43468 3.27131 1.20842C2.49758 1.98215 2.0629 3.03156 2.0629 4.12579V6.18869C1.51578 6.18869 0.991076 6.40603 0.604208 6.79289C0.21734 7.17976 0 7.70447 0 8.25158C0 8.79869 0.21734 9.3234 0.604208 9.71027C0.991076 10.0971 1.51578 10.3145 2.0629 10.3145V14.4403C1.51578 14.4403 0.991076 14.6576 0.604208 15.0445C0.21734 15.4313 0 15.956 0 16.5032C0 17.0503 0.21734 17.575 0.604208 17.9618C0.991076 18.3487 1.51578 18.5661 2.0629 18.5661V22.6918C1.51578 22.6918 0.991076 22.9092 0.604208 23.2961C0.21734 23.6829 0 24.2076 0 24.7547C0 25.3019 0.21734 25.8266 0.604208 26.2134C0.991076 26.6003 1.51578 26.8176 2.0629 26.8176V30.9434C1.51578 30.9434 0.991076 31.1608 0.604208 31.5476C0.21734 31.9345 0 32.4592 0 33.0063C0 33.5534 0.21734 34.0781 0.604208 34.465C0.991076 34.8519 1.51578 35.0692 2.0629 35.0692V37.1321C2.0629 38.2263 2.49758 39.2758 3.27131 40.0495C4.04505 40.8232 5.09446 41.2579 6.18869 41.2579H30.9434C32.0377 41.2579 33.0871 40.8232 33.8608 40.0495C34.6345 39.2758 35.0692 38.2263 35.0692 37.1321V4.12579C35.0692 3.03156 34.6345 1.98215 33.8608 1.20842C33.0871 0.43468 32.0377 0 30.9434 0H6.18869ZM11.3459 8.25158C10.5253 8.25158 9.73819 8.57759 9.15789 9.15789C8.57759 9.73819 8.25158 10.5253 8.25158 11.3459V13.4088C8.25158 14.2295 8.57759 15.0165 9.15789 15.5969C9.73819 16.1772 10.5253 16.5032 11.3459 16.5032H25.7862C26.6069 16.5032 27.3939 16.1772 27.9742 15.5969C28.5545 15.0165 28.8805 14.2295 28.8805 13.4088V11.3459C28.8805 10.5253 28.5545 9.73819 27.9742 9.15789C27.3939 8.57759 26.6069 8.25158 25.7862 8.25158H11.3459Z" fill="white"/>
</svg>
