<svg width="23" height="24" viewBox="0 0 23 24" fill="none" xmlns="http://www.w3.org/2000/svg">
<g filter="url(#filter0_d_54_83)">
<mask id="path-1-outside-1_54_83" maskUnits="userSpaceOnUse" x="0" y="0" width="23" height="22" fill="black">
<rect fill="white" width="23" height="22"/>
<path d="M11.1387 1.00015C11.0218 1.00201 10.8345 1.05562 10.6061 1.15939C10.7367 1.18529 10.847 1.22595 10.9242 1.27669C11.0014 1.32742 11.0424 1.38617 11.0426 1.44614C11.0426 1.48794 11.0227 1.52933 10.9841 1.56795C10.9455 1.60656 10.8889 1.64165 10.8176 1.67121C10.7463 1.70077 10.6616 1.72421 10.5684 1.74021C10.4752 1.7562 10.3753 1.76444 10.2744 1.76444C10.0792 1.76435 9.89141 1.73348 9.74917 1.67811C9.22674 2.06397 8.65083 2.59026 8.09902 3.18973C7.96996 3.33015 7.84365 3.47315 7.72017 3.61864C7.75217 3.6169 7.7844 3.61598 7.81669 3.61588C8.02251 3.61588 8.2199 3.64941 8.36544 3.70909C8.51098 3.76877 8.59274 3.84972 8.59274 3.93413C8.59276 3.97592 8.5727 4.01731 8.5337 4.05593C8.49471 4.09455 8.43755 4.12963 8.36548 4.15919C8.29342 4.18875 8.20786 4.21219 8.1137 4.22819C8.01953 4.24419 7.91861 4.25242 7.81669 4.25242C7.61621 4.25239 7.42353 4.22055 7.27903 4.16356C6.65638 4.97035 6.12524 5.82975 5.80804 6.59553C9.23808 7.25754 13.1722 7.20969 16.7837 6.45968C16.7415 6.34907 16.6961 6.23972 16.6476 6.13178C16.5415 6.15152 16.4247 6.16185 16.3061 6.16196C16.1024 6.16196 15.907 6.13178 15.763 6.07808C15.6189 6.02437 15.538 5.95152 15.5379 5.87556C15.5379 5.7996 15.6189 5.72674 15.7629 5.67302C15.907 5.6193 16.1024 5.58913 16.3061 5.58913C16.331 5.5892 16.3559 5.58973 16.3807 5.59071C15.9411 4.77549 15.3104 3.90118 14.6007 3.14655C13.4148 1.88529 11.9929 0.986558 11.1388 1.00015H11.1387ZM12.1605 1.89948C12.2583 1.89948 12.3552 1.90668 12.4455 1.92068C12.5359 1.93468 12.618 1.9552 12.6872 1.98107C12.7563 2.00694 12.8112 2.03764 12.8486 2.07144C12.886 2.10523 12.9052 2.14145 12.9052 2.17803C12.9052 2.25187 12.8267 2.32269 12.687 2.3749C12.5474 2.42711 12.358 2.45644 12.1605 2.45644C11.963 2.45645 11.7736 2.42713 11.6339 2.37491C11.4943 2.3227 11.4158 2.25188 11.4158 2.17803C11.4157 2.14145 11.435 2.10523 11.4724 2.07143C11.5098 2.03763 11.5646 2.00692 11.6338 1.98106C11.703 1.95519 11.7851 1.93467 11.8755 1.92067C11.9658 1.90667 12.0627 1.89947 12.1605 1.89948ZM13.5106 3.28399C13.7122 3.28399 13.9056 3.31668 14.0482 3.37486C14.1908 3.43305 14.2709 3.51197 14.271 3.59426C14.271 3.67656 14.1908 3.7555 14.0482 3.81369C13.9056 3.87189 13.7122 3.90458 13.5106 3.90458C13.4107 3.90458 13.3118 3.89656 13.2196 3.88096C13.1273 3.86537 13.0435 3.84251 12.9729 3.8137C12.9023 3.78488 12.8462 3.75067 12.808 3.71302C12.7698 3.67537 12.7501 3.63502 12.7501 3.59426C12.7502 3.51197 12.8303 3.43304 12.9729 3.37486C13.1155 3.31667 13.3089 3.28399 13.5106 3.28399ZM10.5636 4.26878C10.6645 4.26878 10.7644 4.27701 10.8576 4.293C10.9508 4.309 11.0355 4.33244 11.1068 4.362C11.1782 4.39156 11.2348 4.42665 11.2734 4.46527C11.312 4.50388 11.3318 4.54527 11.3318 4.58707C11.3318 4.67148 11.2509 4.75242 11.1068 4.81211C10.9628 4.87179 10.7674 4.90532 10.5636 4.90532C10.4627 4.90532 10.3628 4.89709 10.2696 4.8811C10.1764 4.86511 10.0917 4.84167 10.0204 4.81211C9.94906 4.78256 9.89247 4.74748 9.85386 4.70886C9.81525 4.67025 9.79538 4.62887 9.79538 4.58707C9.79536 4.54527 9.81523 4.50388 9.85383 4.46527C9.89243 4.42665 9.94902 4.39156 10.0204 4.362C10.0917 4.33244 10.1764 4.309 10.2696 4.293C10.3628 4.27701 10.4627 4.26878 10.5636 4.26878H10.5636ZM8.82789 5.93919C8.93084 5.93919 9.03278 5.94639 9.12789 5.96039C9.223 5.97438 9.30942 5.9949 9.38221 6.02076C9.455 6.04662 9.51274 6.07733 9.55212 6.11112C9.59151 6.14491 9.61177 6.18112 9.61176 6.21769C9.61176 6.29155 9.52917 6.36237 9.38217 6.41459C9.23516 6.46682 9.03578 6.49615 8.82789 6.49615C8.72494 6.49616 8.62301 6.48896 8.5279 6.47496C8.43279 6.46097 8.34637 6.44046 8.27358 6.4146C8.20079 6.38874 8.14304 6.35804 8.10365 6.32426C8.06425 6.29047 8.04397 6.25426 8.04397 6.21769C8.04396 6.18112 8.06422 6.1449 8.10361 6.11111C8.143 6.07732 8.20074 6.04662 8.27353 6.02076C8.34633 5.99489 8.43275 5.97438 8.52787 5.96038C8.62299 5.94639 8.72493 5.93918 8.82789 5.93919ZM18.4347 6.90272C13.9063 8.1164 8.73507 8.20114 4.44656 7.12667C4.16235 7.46585 3.9144 7.77382 3.77064 8.07602C3.62747 8.37701 3.56478 8.6861 3.61697 9.10123C8.71904 10.2775 14.2674 9.99167 19.4317 9.04935C19.4916 8.73744 19.4461 8.43601 19.2949 8.09637C19.1298 7.7256 18.8284 7.32202 18.4347 6.90272ZM18.9916 9.95896C18.0019 10.1292 16.9987 10.2749 15.9871 10.3909C16.433 12.275 16.9624 14.4219 16.7685 16.387L16.7406 16.6712L16.468 16.7416C13.3763 17.5409 10.0493 18.166 6.92085 16.7174L6.72218 16.6254L6.69022 16.4063C6.39208 14.3677 7.00871 12.4069 7.32805 10.5277C6.23087 10.4206 5.14208 10.2597 4.06837 10.0377C3.01927 12.6606 2.44465 15.8785 2.70225 18.7923C2.2613 19.2574 1.83409 19.855 2.06459 20.2577C2.47037 20.9664 3.97757 20.5971 4.88461 20.2951C9.03071 21.2755 13.8379 21.1727 17.8157 20.3598C18.6398 20.6609 20.4799 21.223 20.9354 20.4273C21.155 20.0437 20.7776 19.4832 20.3602 19.0287C20.8162 15.8742 19.9165 12.7186 18.9916 9.95896ZM15.1808 10.4775C12.845 10.7068 10.4736 10.7686 8.13201 10.5958C7.82111 12.4945 7.27551 14.3157 7.46556 16.0641C10.1702 17.225 13.0965 16.7517 15.9831 16.0215C16.0842 14.2958 15.6076 12.2942 15.1808 10.4775H15.1808Z"/>
</mask>
<path d="M11.1387 1.00015C11.0218 1.00201 10.8345 1.05562 10.6061 1.15939C10.7367 1.18529 10.847 1.22595 10.9242 1.27669C11.0014 1.32742 11.0424 1.38617 11.0426 1.44614C11.0426 1.48794 11.0227 1.52933 10.9841 1.56795C10.9455 1.60656 10.8889 1.64165 10.8176 1.67121C10.7463 1.70077 10.6616 1.72421 10.5684 1.74021C10.4752 1.7562 10.3753 1.76444 10.2744 1.76444C10.0792 1.76435 9.89141 1.73348 9.74917 1.67811C9.22674 2.06397 8.65083 2.59026 8.09902 3.18973C7.96996 3.33015 7.84365 3.47315 7.72017 3.61864C7.75217 3.6169 7.7844 3.61598 7.81669 3.61588C8.02251 3.61588 8.2199 3.64941 8.36544 3.70909C8.51098 3.76877 8.59274 3.84972 8.59274 3.93413C8.59276 3.97592 8.5727 4.01731 8.5337 4.05593C8.49471 4.09455 8.43755 4.12963 8.36548 4.15919C8.29342 4.18875 8.20786 4.21219 8.1137 4.22819C8.01953 4.24419 7.91861 4.25242 7.81669 4.25242C7.61621 4.25239 7.42353 4.22055 7.27903 4.16356C6.65638 4.97035 6.12524 5.82975 5.80804 6.59553C9.23808 7.25754 13.1722 7.20969 16.7837 6.45968C16.7415 6.34907 16.6961 6.23972 16.6476 6.13178C16.5415 6.15152 16.4247 6.16185 16.3061 6.16196C16.1024 6.16196 15.907 6.13178 15.763 6.07808C15.6189 6.02437 15.538 5.95152 15.5379 5.87556C15.5379 5.7996 15.6189 5.72674 15.7629 5.67302C15.907 5.6193 16.1024 5.58913 16.3061 5.58913C16.331 5.5892 16.3559 5.58973 16.3807 5.59071C15.9411 4.77549 15.3104 3.90118 14.6007 3.14655C13.4148 1.88529 11.9929 0.986558 11.1388 1.00015H11.1387ZM12.1605 1.89948C12.2583 1.89948 12.3552 1.90668 12.4455 1.92068C12.5359 1.93468 12.618 1.9552 12.6872 1.98107C12.7563 2.00694 12.8112 2.03764 12.8486 2.07144C12.886 2.10523 12.9052 2.14145 12.9052 2.17803C12.9052 2.25187 12.8267 2.32269 12.687 2.3749C12.5474 2.42711 12.358 2.45644 12.1605 2.45644C11.963 2.45645 11.7736 2.42713 11.6339 2.37491C11.4943 2.3227 11.4158 2.25188 11.4158 2.17803C11.4157 2.14145 11.435 2.10523 11.4724 2.07143C11.5098 2.03763 11.5646 2.00692 11.6338 1.98106C11.703 1.95519 11.7851 1.93467 11.8755 1.92067C11.9658 1.90667 12.0627 1.89947 12.1605 1.89948ZM13.5106 3.28399C13.7122 3.28399 13.9056 3.31668 14.0482 3.37486C14.1908 3.43305 14.2709 3.51197 14.271 3.59426C14.271 3.67656 14.1908 3.7555 14.0482 3.81369C13.9056 3.87189 13.7122 3.90458 13.5106 3.90458C13.4107 3.90458 13.3118 3.89656 13.2196 3.88096C13.1273 3.86537 13.0435 3.84251 12.9729 3.8137C12.9023 3.78488 12.8462 3.75067 12.808 3.71302C12.7698 3.67537 12.7501 3.63502 12.7501 3.59426C12.7502 3.51197 12.8303 3.43304 12.9729 3.37486C13.1155 3.31667 13.3089 3.28399 13.5106 3.28399ZM10.5636 4.26878C10.6645 4.26878 10.7644 4.27701 10.8576 4.293C10.9508 4.309 11.0355 4.33244 11.1068 4.362C11.1782 4.39156 11.2348 4.42665 11.2734 4.46527C11.312 4.50388 11.3318 4.54527 11.3318 4.58707C11.3318 4.67148 11.2509 4.75242 11.1068 4.81211C10.9628 4.87179 10.7674 4.90532 10.5636 4.90532C10.4627 4.90532 10.3628 4.89709 10.2696 4.8811C10.1764 4.86511 10.0917 4.84167 10.0204 4.81211C9.94906 4.78256 9.89247 4.74748 9.85386 4.70886C9.81525 4.67025 9.79538 4.62887 9.79538 4.58707C9.79536 4.54527 9.81523 4.50388 9.85383 4.46527C9.89243 4.42665 9.94902 4.39156 10.0204 4.362C10.0917 4.33244 10.1764 4.309 10.2696 4.293C10.3628 4.27701 10.4627 4.26878 10.5636 4.26878H10.5636ZM8.82789 5.93919C8.93084 5.93919 9.03278 5.94639 9.12789 5.96039C9.223 5.97438 9.30942 5.9949 9.38221 6.02076C9.455 6.04662 9.51274 6.07733 9.55212 6.11112C9.59151 6.14491 9.61177 6.18112 9.61176 6.21769C9.61176 6.29155 9.52917 6.36237 9.38217 6.41459C9.23516 6.46682 9.03578 6.49615 8.82789 6.49615C8.72494 6.49616 8.62301 6.48896 8.5279 6.47496C8.43279 6.46097 8.34637 6.44046 8.27358 6.4146C8.20079 6.38874 8.14304 6.35804 8.10365 6.32426C8.06425 6.29047 8.04397 6.25426 8.04397 6.21769C8.04396 6.18112 8.06422 6.1449 8.10361 6.11111C8.143 6.07732 8.20074 6.04662 8.27353 6.02076C8.34633 5.99489 8.43275 5.97438 8.52787 5.96038C8.62299 5.94639 8.72493 5.93918 8.82789 5.93919ZM18.4347 6.90272C13.9063 8.1164 8.73507 8.20114 4.44656 7.12667C4.16235 7.46585 3.9144 7.77382 3.77064 8.07602C3.62747 8.37701 3.56478 8.6861 3.61697 9.10123C8.71904 10.2775 14.2674 9.99167 19.4317 9.04935C19.4916 8.73744 19.4461 8.43601 19.2949 8.09637C19.1298 7.7256 18.8284 7.32202 18.4347 6.90272ZM18.9916 9.95896C18.0019 10.1292 16.9987 10.2749 15.9871 10.3909C16.433 12.275 16.9624 14.4219 16.7685 16.387L16.7406 16.6712L16.468 16.7416C13.3763 17.5409 10.0493 18.166 6.92085 16.7174L6.72218 16.6254L6.69022 16.4063C6.39208 14.3677 7.00871 12.4069 7.32805 10.5277C6.23087 10.4206 5.14208 10.2597 4.06837 10.0377C3.01927 12.6606 2.44465 15.8785 2.70225 18.7923C2.2613 19.2574 1.83409 19.855 2.06459 20.2577C2.47037 20.9664 3.97757 20.5971 4.88461 20.2951C9.03071 21.2755 13.8379 21.1727 17.8157 20.3598C18.6398 20.6609 20.4799 21.223 20.9354 20.4273C21.155 20.0437 20.7776 19.4832 20.3602 19.0287C20.8162 15.8742 19.9165 12.7186 18.9916 9.95896ZM15.1808 10.4775C12.845 10.7068 10.4736 10.7686 8.13201 10.5958C7.82111 12.4945 7.27551 14.3157 7.46556 16.0641C10.1702 17.225 13.0965 16.7517 15.9831 16.0215C16.0842 14.2958 15.6076 12.2942 15.1808 10.4775H15.1808Z" fill="white"/>
<path d="M11.1387 1.00015C11.0218 1.00201 10.8345 1.05562 10.6061 1.15939C10.7367 1.18529 10.847 1.22595 10.9242 1.27669C11.0014 1.32742 11.0424 1.38617 11.0426 1.44614C11.0426 1.48794 11.0227 1.52933 10.9841 1.56795C10.9455 1.60656 10.8889 1.64165 10.8176 1.67121C10.7463 1.70077 10.6616 1.72421 10.5684 1.74021C10.4752 1.7562 10.3753 1.76444 10.2744 1.76444C10.0792 1.76435 9.89141 1.73348 9.74917 1.67811C9.22674 2.06397 8.65083 2.59026 8.09902 3.18973C7.96996 3.33015 7.84365 3.47315 7.72017 3.61864C7.75217 3.6169 7.7844 3.61598 7.81669 3.61588C8.02251 3.61588 8.2199 3.64941 8.36544 3.70909C8.51098 3.76877 8.59274 3.84972 8.59274 3.93413C8.59276 3.97592 8.5727 4.01731 8.5337 4.05593C8.49471 4.09455 8.43755 4.12963 8.36548 4.15919C8.29342 4.18875 8.20786 4.21219 8.1137 4.22819C8.01953 4.24419 7.91861 4.25242 7.81669 4.25242C7.61621 4.25239 7.42353 4.22055 7.27903 4.16356C6.65638 4.97035 6.12524 5.82975 5.80804 6.59553C9.23808 7.25754 13.1722 7.20969 16.7837 6.45968C16.7415 6.34907 16.6961 6.23972 16.6476 6.13178C16.5415 6.15152 16.4247 6.16185 16.3061 6.16196C16.1024 6.16196 15.907 6.13178 15.763 6.07808C15.6189 6.02437 15.538 5.95152 15.5379 5.87556C15.5379 5.7996 15.6189 5.72674 15.7629 5.67302C15.907 5.6193 16.1024 5.58913 16.3061 5.58913C16.331 5.5892 16.3559 5.58973 16.3807 5.59071C15.9411 4.77549 15.3104 3.90118 14.6007 3.14655C13.4148 1.88529 11.9929 0.986558 11.1388 1.00015H11.1387ZM12.1605 1.89948C12.2583 1.89948 12.3552 1.90668 12.4455 1.92068C12.5359 1.93468 12.618 1.9552 12.6872 1.98107C12.7563 2.00694 12.8112 2.03764 12.8486 2.07144C12.886 2.10523 12.9052 2.14145 12.9052 2.17803C12.9052 2.25187 12.8267 2.32269 12.687 2.3749C12.5474 2.42711 12.358 2.45644 12.1605 2.45644C11.963 2.45645 11.7736 2.42713 11.6339 2.37491C11.4943 2.3227 11.4158 2.25188 11.4158 2.17803C11.4157 2.14145 11.435 2.10523 11.4724 2.07143C11.5098 2.03763 11.5646 2.00692 11.6338 1.98106C11.703 1.95519 11.7851 1.93467 11.8755 1.92067C11.9658 1.90667 12.0627 1.89947 12.1605 1.89948ZM13.5106 3.28399C13.7122 3.28399 13.9056 3.31668 14.0482 3.37486C14.1908 3.43305 14.2709 3.51197 14.271 3.59426C14.271 3.67656 14.1908 3.7555 14.0482 3.81369C13.9056 3.87189 13.7122 3.90458 13.5106 3.90458C13.4107 3.90458 13.3118 3.89656 13.2196 3.88096C13.1273 3.86537 13.0435 3.84251 12.9729 3.8137C12.9023 3.78488 12.8462 3.75067 12.808 3.71302C12.7698 3.67537 12.7501 3.63502 12.7501 3.59426C12.7502 3.51197 12.8303 3.43304 12.9729 3.37486C13.1155 3.31667 13.3089 3.28399 13.5106 3.28399ZM10.5636 4.26878C10.6645 4.26878 10.7644 4.27701 10.8576 4.293C10.9508 4.309 11.0355 4.33244 11.1068 4.362C11.1782 4.39156 11.2348 4.42665 11.2734 4.46527C11.312 4.50388 11.3318 4.54527 11.3318 4.58707C11.3318 4.67148 11.2509 4.75242 11.1068 4.81211C10.9628 4.87179 10.7674 4.90532 10.5636 4.90532C10.4627 4.90532 10.3628 4.89709 10.2696 4.8811C10.1764 4.86511 10.0917 4.84167 10.0204 4.81211C9.94906 4.78256 9.89247 4.74748 9.85386 4.70886C9.81525 4.67025 9.79538 4.62887 9.79538 4.58707C9.79536 4.54527 9.81523 4.50388 9.85383 4.46527C9.89243 4.42665 9.94902 4.39156 10.0204 4.362C10.0917 4.33244 10.1764 4.309 10.2696 4.293C10.3628 4.27701 10.4627 4.26878 10.5636 4.26878H10.5636ZM8.82789 5.93919C8.93084 5.93919 9.03278 5.94639 9.12789 5.96039C9.223 5.97438 9.30942 5.9949 9.38221 6.02076C9.455 6.04662 9.51274 6.07733 9.55212 6.11112C9.59151 6.14491 9.61177 6.18112 9.61176 6.21769C9.61176 6.29155 9.52917 6.36237 9.38217 6.41459C9.23516 6.46682 9.03578 6.49615 8.82789 6.49615C8.72494 6.49616 8.62301 6.48896 8.5279 6.47496C8.43279 6.46097 8.34637 6.44046 8.27358 6.4146C8.20079 6.38874 8.14304 6.35804 8.10365 6.32426C8.06425 6.29047 8.04397 6.25426 8.04397 6.21769C8.04396 6.18112 8.06422 6.1449 8.10361 6.11111C8.143 6.07732 8.20074 6.04662 8.27353 6.02076C8.34633 5.99489 8.43275 5.97438 8.52787 5.96038C8.62299 5.94639 8.72493 5.93918 8.82789 5.93919ZM18.4347 6.90272C13.9063 8.1164 8.73507 8.20114 4.44656 7.12667C4.16235 7.46585 3.9144 7.77382 3.77064 8.07602C3.62747 8.37701 3.56478 8.6861 3.61697 9.10123C8.71904 10.2775 14.2674 9.99167 19.4317 9.04935C19.4916 8.73744 19.4461 8.43601 19.2949 8.09637C19.1298 7.7256 18.8284 7.32202 18.4347 6.90272ZM18.9916 9.95896C18.0019 10.1292 16.9987 10.2749 15.9871 10.3909C16.433 12.275 16.9624 14.4219 16.7685 16.387L16.7406 16.6712L16.468 16.7416C13.3763 17.5409 10.0493 18.166 6.92085 16.7174L6.72218 16.6254L6.69022 16.4063C6.39208 14.3677 7.00871 12.4069 7.32805 10.5277C6.23087 10.4206 5.14208 10.2597 4.06837 10.0377C3.01927 12.6606 2.44465 15.8785 2.70225 18.7923C2.2613 19.2574 1.83409 19.855 2.06459 20.2577C2.47037 20.9664 3.97757 20.5971 4.88461 20.2951C9.03071 21.2755 13.8379 21.1727 17.8157 20.3598C18.6398 20.6609 20.4799 21.223 20.9354 20.4273C21.155 20.0437 20.7776 19.4832 20.3602 19.0287C20.8162 15.8742 19.9165 12.7186 18.9916 9.95896ZM15.1808 10.4775C12.845 10.7068 10.4736 10.7686 8.13201 10.5958C7.82111 12.4945 7.27551 14.3157 7.46556 16.0641C10.1702 17.225 13.0965 16.7517 15.9831 16.0215C16.0842 14.2958 15.6076 12.2942 15.1808 10.4775H15.1808Z" stroke="#D322C2" stroke-width="2" stroke-linejoin="round" mask="url(#path-1-outside-1_54_83)"/>
</g>
<defs>
<filter id="filter0_d_54_83" x="0.499023" y="0" width="22.002" height="23.5" filterUnits="userSpaceOnUse" color-interpolation-filters="sRGB">
<feFlood flood-opacity="0" result="BackgroundImageFix"/>
<feColorMatrix in="SourceAlpha" type="matrix" values="0 0 0 0 0 0 0 0 0 0 0 0 0 0 0 0 0 0 127 0" result="hardAlpha"/>
<feOffset dy="1"/>
<feGaussianBlur stdDeviation="0.25"/>
<feComposite in2="hardAlpha" operator="out"/>
<feColorMatrix type="matrix" values="0 0 0 0 0.149028 0 0 0 0 0 0 0 0 0 0.308333 0 0 0 0.18 0"/>
<feBlend mode="normal" in2="BackgroundImageFix" result="effect1_dropShadow_54_83"/>
<feBlend mode="normal" in="SourceGraphic" in2="effect1_dropShadow_54_83" result="shape"/>
</filter>
</defs>
</svg>
