<svg width="119" height="118" viewBox="0 0 119 118" fill="none" xmlns="http://www.w3.org/2000/svg">
<g filter="url(#filter0_d_53_42)">
<path fill-rule="evenodd" clip-rule="evenodd" d="M59.5 0C49.2827 0 41 8.28273 41 18.5V36.5H23C12.7827 36.5 4.5 44.7827 4.5 55C4.5 65.2173 12.7827 73.5 23 73.5H41V91.5C41 101.717 49.2827 110 59.5 110C69.7173 110 78 101.717 78 91.5V73.5H96C106.217 73.5 114.5 65.2173 114.5 55C114.5 44.7827 106.217 36.5 96 36.5H78V18.5C78 8.28273 69.7173 0 59.5 0Z" fill="white"/>
</g>
<defs>
<filter id="filter0_d_53_42" x="0.5" y="0" width="118" height="118" filterUnits="userSpaceOnUse" color-interpolation-filters="sRGB">
<feFlood flood-opacity="0" result="BackgroundImageFix"/>
<feColorMatrix in="SourceAlpha" type="matrix" values="0 0 0 0 0 0 0 0 0 0 0 0 0 0 0 0 0 0 127 0" result="hardAlpha"/>
<feOffset dy="4"/>
<feGaussianBlur stdDeviation="2"/>
<feComposite in2="hardAlpha" operator="out"/>
<feColorMatrix type="matrix" values="0 0 0 0 0 0 0 0 0 0 0 0 0 0 0 0 0 0 0.25 0"/>
<feBlend mode="normal" in2="BackgroundImageFix" result="effect1_dropShadow_53_42"/>
<feBlend mode="normal" in="SourceGraphic" in2="effect1_dropShadow_53_42" result="shape"/>
</filter>
</defs>
</svg>
