<svg width="22" height="22" viewBox="0 0 22 22" fill="none" xmlns="http://www.w3.org/2000/svg">
<g filter="url(#filter0_d_54_81)">
<path d="M14 1C14.2549 1.00025 14.5 1.08808 14.6854 1.24552C14.8707 1.40297 14.9822 1.61816 14.9972 1.84712C15.0121 2.07608 14.9293 2.30153 14.7657 2.47741C14.6021 2.65329 14.3701 2.76632 14.117 2.79341L14 2.7997C13.307 2.7997 12.67 3.4242 12.309 4.19628C12.9259 3.91376 13.6003 3.7472 14.291 3.70676L14.556 3.69956C17.538 3.69956 20 6.44681 20 9.38662C20 12.5784 19.394 14.6616 17.577 17.1056C15.885 19.1311 13.485 19.5829 11.167 18.216C11.12 18.1889 11.0657 18.1738 11.0099 18.1722C10.9541 18.1707 10.8988 18.1827 10.85 18.207C8.515 19.582 6.115 19.1311 4.39 17.0642C2.607 14.6634 2 12.5793 2 9.38662L2.004 9.18686C2.112 6.32443 4.53 3.69956 7.444 3.69956C8.384 3.69956 9.296 3.96141 10.132 4.41224C10.551 2.65753 11.95 1 14 1ZM6.966 6.53769C5.606 7.30976 5 8.39139 5 9.99852C5 10.2372 5.10536 10.4661 5.29289 10.6348C5.48043 10.8036 5.73478 10.8984 6 10.8984C6.26522 10.8984 6.51957 10.8036 6.70711 10.6348C6.89464 10.4661 7 10.2372 7 9.99852C7 8.98619 7.28 8.48857 8.034 8.06024C8.25837 7.9328 8.4173 7.73037 8.47581 7.49749C8.53432 7.26461 8.48763 7.02035 8.346 6.81844C8.20437 6.61654 7.97942 6.47354 7.72062 6.42088C7.46182 6.36823 7.19037 6.41025 6.966 6.53769Z" fill="white"/>
<path d="M14.0005 0.5H14C11.886 0.5 10.4277 2.02703 9.82193 3.70687C9.07405 3.38442 8.27228 3.19956 7.444 3.19956C4.2296 3.19956 1.62126 6.06969 1.50436 9.168L1.50428 9.168L1.5041 9.17685L1.5001 9.37661L1.5 9.37661V9.38662C1.5 12.6711 2.13286 14.8635 3.98859 17.3623C3.99422 17.3699 4.00007 17.3773 4.00612 17.3845C4.93122 18.493 6.06165 19.1952 7.30274 19.4184C8.51074 19.6357 9.77749 19.3909 11.0005 18.6974C12.2208 19.394 13.4884 19.639 14.694 19.4253C15.9278 19.2065 17.0508 18.5155 17.9607 17.4261C17.9668 17.4189 17.9726 17.4114 17.9783 17.4039C18.9129 16.1467 19.5488 14.9647 19.9476 13.6741C20.3457 12.3859 20.5 11.0138 20.5 9.38662C20.5 6.20181 17.8444 3.19991 14.5566 3.19956C14.7738 3.11854 14.9721 2.98968 15.1318 2.81794C15.3842 2.54659 15.5205 2.18794 15.4961 1.81457C15.4718 1.44174 15.2907 1.10371 15.0091 0.864463C14.7289 0.62643 14.3676 0.500367 14.0005 0.5ZM7.21285 6.97251L7.21294 6.97246C7.32956 6.90622 7.4775 6.88167 7.62094 6.91085C7.76412 6.93998 7.87403 7.01628 7.93666 7.10558C7.99749 7.19229 8.01292 7.28792 7.99088 7.37565C7.96831 7.46549 7.90257 7.55987 7.78706 7.62548L7.78703 7.62549C7.36013 7.868 7.01762 8.1588 6.79419 8.573C6.5745 8.98026 6.5 9.45174 6.5 9.99852C6.5 10.0865 6.46162 10.1831 6.37265 10.2631C6.28195 10.3448 6.14864 10.3984 6 10.3984C5.85136 10.3984 5.71805 10.3448 5.62735 10.2631C5.53838 10.1831 5.5 10.0865 5.5 9.99852C5.5 9.25823 5.63922 8.67618 5.9081 8.20132C6.17616 7.72788 6.59418 7.32373 7.21285 6.97251Z" stroke="#D322C2" stroke-linejoin="round"/>
</g>
<defs>
<filter id="filter0_d_54_81" x="0.5" y="0" width="21" height="21.5" filterUnits="userSpaceOnUse" color-interpolation-filters="sRGB">
<feFlood flood-opacity="0" result="BackgroundImageFix"/>
<feColorMatrix in="SourceAlpha" type="matrix" values="0 0 0 0 0 0 0 0 0 0 0 0 0 0 0 0 0 0 127 0" result="hardAlpha"/>
<feOffset dy="1"/>
<feGaussianBlur stdDeviation="0.25"/>
<feComposite in2="hardAlpha" operator="out"/>
<feColorMatrix type="matrix" values="0 0 0 0 0.149028 0 0 0 0 0 0 0 0 0 0.308333 0 0 0 0.18 0"/>
<feBlend mode="normal" in2="BackgroundImageFix" result="effect1_dropShadow_54_81"/>
<feBlend mode="normal" in="SourceGraphic" in2="effect1_dropShadow_54_81" result="shape"/>
</filter>
</defs>
</svg>
