<svg width="22" height="25" viewBox="0 0 22 25" fill="none" xmlns="http://www.w3.org/2000/svg">
<g filter="url(#filter0_d_54_77)">
<path fill-rule="evenodd" clip-rule="evenodd" d="M10.298 1.13446C10.7506 0.95518 11.2494 0.95518 11.702 1.13446L18.702 3.90823C19.0833 4.05926 19.4119 4.32969 19.6438 4.68336C19.8758 5.03702 20.0001 5.45708 20 5.88738V11.5543C20 13.3205 19.5346 15.0517 18.6559 16.5541C17.7772 18.0565 16.52 19.2707 15.025 20.0605L11.671 21.8326C11.4627 21.9427 11.2329 22 11 22C10.7671 22 10.5373 21.9427 10.329 21.8326L6.975 20.0605C5.48004 19.2707 4.22277 18.0565 3.34407 16.5541C2.46537 15.0517 1.99996 13.3205 2 11.5543V5.88738C1.99995 5.45708 2.1242 5.03702 2.35615 4.68336C2.5881 4.32969 2.91669 4.05926 3.298 3.90823L10.298 1.13446Z" fill="white"/>
<path d="M10.1139 0.669599L10.1138 0.669624L3.11387 3.44337C3.11385 3.44337 3.11383 3.44338 3.11381 3.44339C2.63362 3.63361 2.2246 3.97223 1.93805 4.40915C1.65169 4.84578 1.49995 5.36145 1.5 5.88738C1.5 5.8874 1.5 5.88742 1.5 5.88743V11.5543C1.49996 13.4078 1.98829 15.2264 2.91247 16.8066C3.83676 18.3869 5.16156 19.6679 6.74142 20.5026L6.975 20.0605L6.74143 20.5026L10.0954 22.2746C10.3748 22.4223 10.6847 22.5 11 22.5C11.3153 22.5 11.6252 22.4223 11.9046 22.2746L15.2586 20.5026L15.025 20.0605L15.2586 20.5026C16.8384 19.6679 18.1632 18.3869 19.0875 16.8066C20.0117 15.2264 20.5 13.4078 20.5 11.5543V5.88744C20.5 5.88742 20.5 5.8874 20.5 5.88738C20.5001 5.36145 20.3483 4.84578 20.062 4.40915C19.7754 3.97223 19.3664 3.63361 18.8862 3.44339C18.8862 3.44338 18.8861 3.44337 18.8861 3.44337L11.8862 0.669624L11.8861 0.669599C11.3152 0.443467 10.6848 0.443467 10.1139 0.669599Z" stroke="#D322C2" stroke-linejoin="round"/>
</g>
<defs>
<filter id="filter0_d_54_77" x="0.5" y="0" width="21" height="24.5" filterUnits="userSpaceOnUse" color-interpolation-filters="sRGB">
<feFlood flood-opacity="0" result="BackgroundImageFix"/>
<feColorMatrix in="SourceAlpha" type="matrix" values="0 0 0 0 0 0 0 0 0 0 0 0 0 0 0 0 0 0 127 0" result="hardAlpha"/>
<feOffset dy="1"/>
<feGaussianBlur stdDeviation="0.25"/>
<feComposite in2="hardAlpha" operator="out"/>
<feColorMatrix type="matrix" values="0 0 0 0 0.149028 0 0 0 0 0 0 0 0 0 0.308333 0 0 0 0.18 0"/>
<feBlend mode="normal" in2="BackgroundImageFix" result="effect1_dropShadow_54_77"/>
<feBlend mode="normal" in="SourceGraphic" in2="effect1_dropShadow_54_77" result="shape"/>
</filter>
</defs>
</svg>
