<svg width="16" height="25" viewBox="0 0 16 25" fill="none" xmlns="http://www.w3.org/2000/svg">
<g filter="url(#filter0_d_54_79)">
<path d="M8 22C6.34 22 4.9252 21.4311 3.7556 20.2932C2.586 19.1553 2.0008 17.7798 2 16.1667C2 15.2333 2.21 14.363 2.63 13.5557C3.05 12.7483 3.64 12.0631 4.4 11.5V4.5C4.4 3.52778 4.75 2.70139 5.45 2.02083C6.15 1.34028 7 1 8 1C9 1 9.85 1.34028 10.55 2.02083C11.25 2.70139 11.6 3.52778 11.6 4.5V11.5C12.36 12.0639 12.95 12.7495 13.37 13.5568C13.79 14.3642 14 15.2341 14 16.1667C14 17.7806 13.4148 19.1564 12.2444 20.2943C11.074 21.4322 9.6592 22.0008 8 22ZM6.8 9.16667H9.2V4.5C9.2 4.16944 9.0848 3.89256 8.8544 3.66933C8.624 3.44611 8.3392 3.33411 8 3.33333C7.6608 3.33256 7.376 3.44456 7.1456 3.66933C6.9152 3.89411 6.8 4.171 6.8 4.5V9.16667Z" fill="white"/>
<path d="M3.7556 20.2932L3.40694 20.6515C2.14191 19.4208 1.50087 17.9167 1.5 16.1669L1.5 16.1667C1.5 15.1551 1.72839 14.2054 2.18643 13.3249C2.60455 12.5212 3.17753 11.8304 3.9 11.2538V4.5C3.9 3.39209 4.30509 2.43659 5.10146 1.66234L5.45 2.02083L5.10146 1.66234C5.89729 0.888614 6.87335 0.5 8 0.5C9.12665 0.5 10.1027 0.888614 10.8985 1.66234C11.6949 2.43659 12.1 3.39209 12.1 4.5V11.254C12.8225 11.8312 13.3954 12.5223 13.8136 13.3261C14.2716 14.2065 14.5 15.1558 14.5 16.1667C14.5 17.9173 13.8589 19.422 12.5929 20.6528C11.3275 21.8831 9.78696 22.5008 8 22.5L3.7556 20.2932ZM3.7556 20.2932L3.40694 20.6515C4.67161 21.8819 6.21215 22.4999 7.99977 22.5L3.7556 20.2932ZM8.7 8.66667H7.3V4.5C7.3 4.3024 7.36318 4.15559 7.49476 4.02723C7.62605 3.89914 7.78272 3.83284 7.99885 3.83333C8.21678 3.83383 8.3748 3.90086 8.50648 4.02844C8.6364 4.1543 8.7 4.30017 8.7 4.5V8.66667Z" stroke="#D322C2" stroke-linejoin="round"/>
</g>
<defs>
<filter id="filter0_d_54_79" x="0.5" y="0" width="15" height="24.5" filterUnits="userSpaceOnUse" color-interpolation-filters="sRGB">
<feFlood flood-opacity="0" result="BackgroundImageFix"/>
<feColorMatrix in="SourceAlpha" type="matrix" values="0 0 0 0 0 0 0 0 0 0 0 0 0 0 0 0 0 0 127 0" result="hardAlpha"/>
<feOffset dy="1"/>
<feGaussianBlur stdDeviation="0.25"/>
<feComposite in2="hardAlpha" operator="out"/>
<feColorMatrix type="matrix" values="0 0 0 0 0.149028 0 0 0 0 0 0 0 0 0 0.308333 0 0 0 0.18 0"/>
<feBlend mode="normal" in2="BackgroundImageFix" result="effect1_dropShadow_54_79"/>
<feBlend mode="normal" in="SourceGraphic" in2="effect1_dropShadow_54_79" result="shape"/>
</filter>
</defs>
</svg>
