<svg width="21" height="28" viewBox="0 0 21 28" fill="none" xmlns="http://www.w3.org/2000/svg">
<g filter="url(#filter0_d_54_73)">
<path d="M11.0383 1.24672C10.9718 1.16935 10.8893 1.10723 10.7964 1.06464C10.7036 1.02205 10.6025 1 10.5003 1C10.3981 1 10.297 1.02205 10.2042 1.06464C10.1113 1.10723 10.0288 1.16935 9.96226 1.24672C8.09344 3.42456 2 10.9538 2 16.531C2 21.7282 5.28431 25 10.5 25C15.7157 25 19 21.7282 19 16.531C19 10.9538 12.9066 3.42456 11.0383 1.24672ZM11.4444 21.9417C11.331 21.942 11.2191 21.9151 11.1183 21.8633C11.0175 21.8115 10.9306 21.7363 10.865 21.6441C10.7994 21.5519 10.757 21.4453 10.7413 21.3333C10.7257 21.2214 10.7373 21.1073 10.7751 21.0007C10.8234 20.8617 10.9145 20.7414 11.0354 20.6569C11.1563 20.5724 11.3009 20.5281 11.4486 20.5302C12.3862 20.5282 13.2848 20.1562 13.9478 19.4957C14.6107 18.8351 14.9841 17.9398 14.9861 17.0056C14.984 16.8585 15.0284 16.7144 15.1132 16.5939C15.198 16.4734 15.3188 16.3827 15.4583 16.3345C15.5653 16.2969 15.6798 16.2853 15.7921 16.3009C15.9045 16.3165 16.0115 16.3588 16.104 16.4241C16.1966 16.4895 16.272 16.576 16.324 16.6765C16.376 16.777 16.403 16.8884 16.4028 17.0015C16.4014 18.3113 15.8785 19.567 14.949 20.4932C14.0194 21.4194 12.759 21.9403 11.4444 21.9417Z" fill="white"/>
<path d="M11.4178 0.921176L11.4175 0.920835C11.304 0.788696 11.1632 0.682745 11.0049 0.610148C10.8465 0.537555 10.6744 0.5 10.5003 0.5C10.3262 0.5 10.154 0.537555 9.99574 0.610148C9.83743 0.682744 9.69661 0.788694 9.58305 0.920836L9.58281 0.921117C8.6403 2.01948 6.63102 4.46859 4.85463 7.35181C3.09138 10.2137 1.5 13.5931 1.5 16.531C1.5 19.2365 2.35706 21.4904 3.94122 23.0687C5.52517 24.6468 7.78631 25.5 10.5 25.5C13.2137 25.5 15.4748 24.6468 17.0588 23.0687C18.6429 21.4904 19.5 19.2365 19.5 16.531C19.5 13.5932 17.9086 10.2137 16.1454 7.35182C14.3691 4.4686 12.36 2.0195 11.4178 0.921176ZM11.4439 21.4417L11.4434 21.4417C11.4097 21.4418 11.3765 21.4338 11.3468 21.4185C11.317 21.4032 11.2915 21.3811 11.2724 21.3543C11.2533 21.3274 11.241 21.2965 11.2365 21.2641C11.232 21.2318 11.2353 21.1988 11.2463 21.1679L11.2474 21.1648C11.2611 21.1254 11.287 21.0911 11.3217 21.0668C11.3565 21.0424 11.3984 21.0296 11.4413 21.0302L11.4413 21.0303L11.4497 21.0302C12.5189 21.0279 13.544 20.6037 14.3007 19.8499C15.0573 19.0959 15.4838 18.0737 15.4861 17.0067H15.4862L15.4861 16.9982C15.4854 16.9568 15.498 16.916 15.5221 16.8817C15.5463 16.8473 15.5809 16.8212 15.6213 16.8072L15.6213 16.8072L15.6245 16.8061C15.6561 16.795 15.6901 16.7915 15.7234 16.7962C15.7568 16.8008 15.7884 16.8133 15.8156 16.8326L16.104 16.4241L15.8156 16.8326C15.8428 16.8518 15.8649 16.8771 15.88 16.9063C15.8951 16.9355 15.9029 16.9677 15.9028 17.0004L15.9028 17.0009C15.9015 18.1777 15.4318 19.3063 14.5961 20.139C13.7603 20.9718 12.6267 21.4405 11.4439 21.4417Z" stroke="#D322C2" stroke-linejoin="round"/>
</g>
<defs>
<filter id="filter0_d_54_73" x="0.5" y="0" width="20" height="27.5" filterUnits="userSpaceOnUse" color-interpolation-filters="sRGB">
<feFlood flood-opacity="0" result="BackgroundImageFix"/>
<feColorMatrix in="SourceAlpha" type="matrix" values="0 0 0 0 0 0 0 0 0 0 0 0 0 0 0 0 0 0 127 0" result="hardAlpha"/>
<feOffset dy="1"/>
<feGaussianBlur stdDeviation="0.25"/>
<feComposite in2="hardAlpha" operator="out"/>
<feColorMatrix type="matrix" values="0 0 0 0 0.149028 0 0 0 0 0 0 0 0 0 0.308333 0 0 0 0.18 0"/>
<feBlend mode="normal" in2="BackgroundImageFix" result="effect1_dropShadow_54_73"/>
<feBlend mode="normal" in="SourceGraphic" in2="effect1_dropShadow_54_73" result="shape"/>
</filter>
</defs>
</svg>
